<svg id="Calque_1" data-name="Calque 1" xmlns="http://www.w3.org/2000/svg" xmlns:xlink="http://www.w3.org/1999/xlink" viewBox="0 0 400 400"><defs><style>.cls-1{fill:none;}.cls-2{fill:#165274;}.cls-3{clip-path:url(#clip-path);}.cls-4{clip-path:url(#clip-path-2);}</style><clipPath id="clip-path"><path class="cls-1" d="M200,10.66C95.43,10.66,10.66,95.43,10.66,200S95.43,389.34,200,389.34,389.34,304.57,389.34,200,304.57,10.66,200,10.66Zm41.29,327.5h-72V119.88H125l46.41-58h69.87Z"/></clipPath><clipPath id="clip-path-2"><rect class="cls-1" width="400" height="400"/></clipPath></defs><path class="cls-2" d="M171.43,61.85l-46.42,58h44.24V338.15H241.3V61.85Zm28.72,250.67a8.67,8.67,0,0,1-4,3.21,16.23,16.23,0,0,1-6.34,1.12,24.19,24.19,0,0,1-3.22-.21,21.66,21.66,0,0,1-3-.65,18.81,18.81,0,0,1-2.75-1V308.7a46.91,46.91,0,0,0,4.69,1.8,15.13,15.13,0,0,0,4.81.81,6.6,6.6,0,0,0,2.65-.44,3,3,0,0,0,1.46-1.18,3.28,3.28,0,0,0,.45-1.75,2.79,2.79,0,0,0-.8-2,8.46,8.46,0,0,0-2.2-1.6c-.92-.47-2-1-3.15-1.57-.73-.35-1.53-.78-2.4-1.27a13.59,13.59,0,0,1-2.47-1.83,8.27,8.27,0,0,1-2.66-6.35,8.68,8.68,0,0,1,1.3-4.85,8.22,8.22,0,0,1,3.71-3.08,13.87,13.87,0,0,1,5.7-1.07,18.61,18.61,0,0,1,4.72.57,30.42,30.42,0,0,1,4.69,1.65l-2.17,5.22a41.12,41.12,0,0,0-3.92-1.38,13.12,13.12,0,0,0-3.53-.48,5.14,5.14,0,0,0-2.14.4,3.14,3.14,0,0,0-1.35,1.12,3.28,3.28,0,0,0-.45,1.69,2.84,2.84,0,0,0,.66,1.89,6.82,6.82,0,0,0,2,1.49c.9.48,2,1,3.33,1.66a26.84,26.84,0,0,1,4.14,2.39,9.08,9.08,0,0,1,2.66,2.93,8.54,8.54,0,0,1,.93,4.17A8.64,8.64,0,0,1,200.15,312.52ZM229,290.33h-8.6v26.09h-6.72V290.33h-8.6v-5.58H229Z"/><g class="cls-3"><g class="cls-4"><polygon class="cls-2" points="103.97 43.59 103.64 42.32 167.6 25.34 170.62 -82.78 171.93 -82.74 168.89 26.36 103.97 43.59"/><path class="cls-2" d="M332.25,91.73,167.58,26.29l3-109.07.64,0,.49-.45L333,90.67ZM168.91,25.41,330,89.44,171.89-81.14Z"/><polygon class="cls-2" points="122.52 137.63 13.89 106.02 14.26 104.76 120.82 135.78 103.16 43.07 104.44 42.83 122.52 137.63"/><path class="cls-2" d="M185.65,199.8,121.06,137l0-.21L103.16,43.07l.63-.12.59-.31L186.68,199Zm-63.38-63.42L183.6,196,105.27,47.14Z"/><path class="cls-2" d="M185.52,199.64,102.84,42.52l66-17.5.09.76,17.86,173.48ZM104.77,43.37,185.1,196,167.67,26.69Z"/><path class="cls-2" d="M186.35,199.94l-.64-1.14L332,90.69l.43-.79,1,1.36-.42.32-33.51,60.58-.22.09ZM330.45,93.46,190.93,196.58l107.62-45.45Z"/><path class="cls-2" d="M185.56,200.54,167.47,24.84,333.85,91ZM169,26.86l17.63,171.26L331.16,91.3Z"/><path class="cls-2" d="M362.59,166,298,152.1l34.42-62.2.69,1ZM300,151.19l60.47,13L332.4,92.66Z"/><path class="cls-2" d="M360.92,165.3,331.57,90.54,364.75,88l-2.57,77.09ZM333.44,91.72,361,161.86l2.4-72.45Z"/><polygon class="cls-2" points="361.75 165.67 361.22 164.48 534.68 70.71 535.31 71.86 369.36 161.57 461.88 128.62 462.31 129.86 361.75 165.67"/><path class="cls-2" d="M360.83,166.18l2.6-78.08.57,0L534.93,70.63l.38,1.23Zm3.87-76.89-2.48,74.65L531.78,72.28Z"/><polygon class="cls-2" points="-124.92 277.39 -125.33 276.15 28.63 224.82 13.43 105.48 14.72 105.31 30.07 225.72 -124.92 277.39"/><rect class="cls-2" x="-165.92" y="190.42" width="220.79" height="1.31" transform="translate(-168.86 27.53) rotate(-50.92)"/><rect class="cls-2" x="-165.92" y="190.42" width="220.79" height="1.31" transform="translate(-168.86 27.53) rotate(-50.92)"/><path class="cls-2" d="M99.76,259.84l-71-34.13,0-.35L13.43,105.48l.66-.09.56-.31Zm-69.8-35,66.67,32.06L15.16,108.72Z"/><path class="cls-2" d="M98.5,260.27l-.88-1.59L12.74,104.32l109.69,31.92-.12.59ZM15.42,106.47l82.48,150,23-119.29Z"/><path class="cls-2" d="M95.84,259.16l89.77-60.29.12-.2h2.53l-1.68,1.13L152.64,256ZM184,201.53l-83.46,56,51.33-2.81Z"/><path class="cls-2" d="M97.26,259.79l24-124.4,65.89,64ZM122.08,138,99.14,256.94l85.92-57.7Z"/><path class="cls-2" d="M254.7,296.59,151.31,255.73l34.42-57.06h.71l.2.28ZM153.23,255.07l97.91,38.69-65-93.23Z"/><path class="cls-2" d="M253.13,296.64l-68-97.6,115-48.56Zm-66-97,65.59,94.09L298,152.8Z"/><path class="cls-2" d="M253.24,295.75l-.83-1L361,164.63l1.15.55-17.3,79.44-.25.14ZM360.32,167.53,255.69,292.87l88-49.12Z"/><path class="cls-2" d="M253.41,295.59l-1.12-.62,46.27-144.09,64.17,13.76Zm46-143.18L254.57,292.17,360.32,165.46Z"/><path class="cls-2" d="M500.83,332.34,343.55,244.52l17.63-80.91.85,1L501.64,331.35ZM345,243.85l153.31,85.6-136.46-163Z"/><path class="cls-2" d="M502.26,334.13l-1.62-1.95L360.43,164.75,462.6,128.36ZM362.64,165.35,500,329.4,461.6,130.11Z"/><polygon class="cls-2" points="-171.77 309.61 -171.89 308.3 9.91 292.77 -125.2 277.42 -125.05 276.12 16.62 292.21 16.61 293.52 -171.77 309.61"/><path class="cls-2" d="M17.08,293.58l-.61-.06-141.67-16.1-.13-1.27L30.2,224.29Zm-139.17-17.13L16,292.15l12.48-65.9Z"/><path class="cls-2" d="M88.57,399.29l-73-106.71,83.38-35.24Zm-71-106.13,70,102.29,9.93-136.07Z"/><path class="cls-2" d="M15.68,294l13.18-69.64L99.8,258.4Zm14.15-67.72L17.42,291.79l79.19-33.46Z"/><path class="cls-2" d="M191.74,399.66,97,257.77l55.75-3,.14.5,40,143.89ZM99.38,259l91.18,136.57L151.78,256.09Z"/><path class="cls-2" d="M191,400.11l62.53-107.37v2.31L289,387.18Zm61.75-103.42L193.52,398.46l93.67-12.36Z"/><path class="cls-2" d="M192.07,401,151.28,254.31l1.22.48,101.37,40-.39.66ZM153.25,256.5,192.5,397.62,252,295.5Z"/><polygon class="cls-2" points="287.49 386.87 252.26 295.3 252.26 293.67 253.36 294.69 336.1 371.17 335.21 372.13 254.53 297.56 288.71 386.4 287.49 386.87"/><path class="cls-2" d="M336.21,373.06l-1-.93L251.81,295,345,243ZM254,295.3l81.07,74.94,8.47-124.9Z"/><path class="cls-2" d="M334.94,372.49l8.77-129.39L502.92,332Zm9.95-127.22L336.36,370.8l163-39.29Z"/><polygon class="cls-2" points="-97.95 388.61 -98.78 387.59 14.52 293.71 -171.77 309.61 -171.89 308.3 18.59 292.05 -97.95 388.61"/><path class="cls-2" d="M23.36,441.67,15.78,290.58l73.2,107Zm-6-146.51,7.23,144.11,62.58-42.08Z"/></g></g><circle class="cls-2" cx="98.17" cy="257.64" r="2.72"/><circle class="cls-2" cx="29.48" cy="225.71" r="2.72"/><circle class="cls-2" cx="153.09" cy="255.36" r="2.72"/><circle class="cls-2" cx="253.35" cy="295.03" r="2.72"/><circle class="cls-2" cx="344.27" cy="244.57" r="2.72"/><circle class="cls-2" cx="299.34" cy="152.01" r="2.72"/><circle class="cls-2" cx="332.41" cy="91.24" r="2.72"/><circle class="cls-2" cx="103.68" cy="42.31" r="3.09"/><circle class="cls-2" cx="168.29" cy="25.47" r="3.09"/><circle class="cls-2" cx="361.75" cy="165.04" r="3.09"/><circle class="cls-2" cx="121.83" cy="136.93" r="3.09"/><path class="cls-2" d="M200,9C94.69,9,9,94.69,9,200S94.69,391,200,391s191-85.68,191-191S305.31,9,200,9Zm0,378.68C96.51,387.69,12.31,303.49,12.31,200A187.75,187.75,0,0,1,101.22,40.46s0,0,0,0l1.92-1.16a186.48,186.48,0,0,1,96.85-27c103.49,0,187.69,84.2,187.69,187.69S303.49,387.69,200,387.69Z"/></svg>